<svg id="Layer_1" data-name="Layer 1" xmlns="http://www.w3.org/2000/svg" viewBox="0 0 97.9 96"><defs><style>.cls-1{fill:#22becc;}</style></defs><title>icon-microservices</title><path class="cls-1" d="M448.28,99H422.09a1,1,0,0,1-.86-0.5L408.14,76a1,1,0,0,1,0-1l13.09-22.5a1,1,0,0,1,.86-0.5h26.19a1,1,0,0,1,.86.5L462.24,75a1,1,0,0,1,0,1L449.14,98.5A1,1,0,0,1,448.28,99Zm-25.61-2h25l12.51-21.5L447.71,54h-25L410.16,75.5Z" transform="translate(-408 -52)"/><path class="cls-1" d="M448.28,148H422.09a1,1,0,0,1-.86-0.5L408.14,125a1,1,0,0,1,0-1l13.09-22.5a1,1,0,0,1,.86-0.5h26.19a1,1,0,0,1,.86.5L462.24,124a1,1,0,0,1,0,1l-13.09,22.5A1,1,0,0,1,448.28,148Zm-25.61-2h25l12.51-21.5L447.71,103h-25l-12.51,21.5Z" transform="translate(-408 -52)"/><path class="cls-1" d="M491.8,124H465.62a1,1,0,0,1-.86-0.5L451.66,101a1,1,0,0,1,0-1l13.09-22.5a1,1,0,0,1,.86-0.5H491.8a1,1,0,0,1,.86.5L505.76,100a1,1,0,0,1,0,1l-13.09,22.5A1,1,0,0,1,491.8,124Zm-25.61-2h25l12.51-21.5L491.23,79h-25l-12.51,21.5Z" transform="translate(-408 -52)"/><path class="cls-1" d="M445.72,96H435.6a1,1,0,0,1-.87-0.51l-5.06-9a1,1,0,0,1,0-1l5.06-9A1,1,0,0,1,435.6,76h10.12a1,1,0,0,1,.87.51l5.06,9a1,1,0,0,1,0,1l-5.06,9A1,1,0,0,1,445.72,96Zm-9.54-2h9l4.5-8-4.5-8h-9l-4.5,8Z" transform="translate(-408 -52)"/><path class="cls-1" d="M445.72,124H435.6a1,1,0,0,1-.86-0.49l-5.06-8.5a1,1,0,0,1,0-1l5.06-8.5a1,1,0,0,1,.86-0.49h10.12a1,1,0,0,1,.86.49l5.06,8.5a1,1,0,0,1,0,1l-5.06,8.5A1,1,0,0,1,445.72,124Zm-9.55-2h9l4.46-7.5-4.46-7.5h-9l-4.46,7.5Z" transform="translate(-408 -52)"/><path class="cls-1" d="M472.49,110H462.37a1,1,0,0,1-.87-0.51l-5.06-9a1,1,0,0,1,0-1l5.06-9a1,1,0,0,1,.87-0.51h10.12a1,1,0,0,1,.87.51l5.06,9a1,1,0,0,1,0,1l-5.06,9A1,1,0,0,1,472.49,110ZM463,108h9l4.5-8-4.5-8h-9l-4.5,8Z" transform="translate(-408 -52)"/></svg>