<svg id="Layer_1" data-name="Layer 1" xmlns="http://www.w3.org/2000/svg" viewBox="0 0 104.65 85.95"><defs><style>.cls-1{fill:#22becc;}</style></defs><title>icon-devops</title><path class="cls-1" d="M119.45,128.69a1,1,0,0,0,1.27.62l4.29-1.48a17.24,17.24,0,0,0,2.58,3.53l-2,4.18a1,1,0,0,0,.46,1.34l6,2.91a1,1,0,0,0,1.34-.46l2-4.18a23.52,23.52,0,0,0,2.42.1h0.64l1.54,4.47a1,1,0,0,0,1.27.62l6.22-2.15a1,1,0,0,0,.62-1.27l-1.54-4.47,0.5-.4a23.71,23.71,0,0,0,1.84-1.57l4.18,2a1,1,0,0,0,1.34-.46l2.91-6a1,1,0,0,0-.46-1.34l-4.14-2a10.35,10.35,0,0,0-.15-4.4l4.26-1.47a1,1,0,0,0,.62-1.27l-1.72-5a1,1,0,0,0-1.27-.62l-4.37,1.51a15.88,15.88,0,0,0-2.06-2.34l2-4.16a1,1,0,0,0-.46-1.34l-6-2.91a1,1,0,0,0-1.34.46l-2,4.17a20.66,20.66,0,0,0-2.76-.19h-0.34l-1.51-4.38a1,1,0,0,0-1.27-.62l-6.22,2.15a1,1,0,0,0-.62,1.27L129,108a19.66,19.66,0,0,0-2.33,2.06l-4.17-2a1,1,0,0,0-1.34.46l-2.91,6a1,1,0,0,0,.46,1.34l4.17,2a21.06,21.06,0,0,0-.17,3.1l-4.38,1.51a1,1,0,0,0-.62,1.27Zm4.65-6.12a1,1,0,0,0,.67-1,17.15,17.15,0,0,1,.24-4.06,1,1,0,0,0-.54-1.11l-3.95-1.92,2-4.17,3.95,1.92a1,1,0,0,0,1.21-.26,16,16,0,0,1,3-2.68,1,1,0,0,0,.43-1.18l-1.43-4.15,4.33-1.5,1.43,4.15a1,1,0,0,0,1.08.66,15.86,15.86,0,0,1,4,.24,1,1,0,0,0,1.11-.54l1.92-3.95,4.17,2L145.88,109a1,1,0,0,0,.26,1.21,13.63,13.63,0,0,1,2.69,3.05,1,1,0,0,0,1.17.4l4.15-1.43,1.07,3.09-4.15,1.43a1,1,0,0,0-.65,1.17c0.67,2.91.48,3.78,0.17,5.18a1,1,0,0,0,.54,1.11l3.95,1.92-2,4.17-4-1.92a1,1,0,0,0-1.21.26,15.32,15.32,0,0,1-2.09,1.86,10.92,10.92,0,0,0-1.16,1,1,1,0,0,0-.21,1l1.43,4.15-4.33,1.5L140.11,134a1,1,0,0,0-.78-0.66,11,11,0,0,0-1.53-.07,15.35,15.35,0,0,1-2.8-.18l-0.21,0a1,1,0,0,0-.9.56L132,137.55l-4.17-2,1.92-3.95a1,1,0,0,0-.26-1.21,14.37,14.37,0,0,1-3.07-4.2,1,1,0,0,0-1.22-.5L121,127.09,119.95,124Z" transform="translate(-52.84 -54.43)"/><path class="cls-1" d="M137.8,128.51A8.24,8.24,0,1,0,130,123,8.23,8.23,0,0,0,137.8,128.51Zm-2-14.15a6.24,6.24,0,1,1-3.86,7.94A6.24,6.24,0,0,1,135.76,114.36Z" transform="translate(-52.84 -54.43)"/><path class="cls-1" d="M118.37,131.41H55.78a1,1,0,0,0-.13-0.32l-0.75-1.2a15.21,15.21,0,0,1,2.08-3c1.86-2.17,5.5-4.08,10.55-5.52,12.31-3.71,24.33-8,24.33-16.39v-3.46A15.62,15.62,0,0,0,90,93.83a1,1,0,0,0-.16-0.21,1.82,1.82,0,0,1-.29-0.37,1,1,0,0,0-.6-0.51c-3.07-.93-4.43-5.28-4-7.89A2.61,2.61,0,0,1,86,83a1,1,0,0,0,.4-0.8A29.69,29.69,0,0,0,86,78.64c-0.06-.59-0.14-1.15-0.22-1.7a18.92,18.92,0,0,1-.25-2.61V73a16,16,0,0,1,2.09-7,18,18,0,0,1,15.81-9.55A17.57,17.57,0,0,1,119.27,66l0.06,0.1a13,13,0,0,1,2,6.83v1.26a21.65,21.65,0,0,1-.28,2.89c-0.07.48-.13,1-0.19,1.41a0.94,0.94,0,0,0,0,.11,14.68,14.68,0,0,1-.16,1.73,14.29,14.29,0,0,0-.16,1.73,1,1,0,0,0,.55.89,2.07,2.07,0,0,1,.88,1.78c0.41,2.58-1,6.93-4,7.86a1,1,0,0,0-.68.7l-0.08.12-0.25.36a14.38,14.38,0,0,0-1.9,7.8v3.31a8.16,8.16,0,0,0,.88,3.67,1,1,0,0,0,1.79-.89,6.1,6.1,0,0,1-.67-2.77v-3.31a12.49,12.49,0,0,1,1.56-6.69l0.22-.32,0.15-.22c4-1.54,5.48-6.76,5-9.89a4.38,4.38,0,0,0-1.38-2.92c0-.29.07-0.62,0.11-1a16.7,16.7,0,0,0,.17-1.93c0-.42.11-0.86,0.17-1.3a23,23,0,0,0,.3-3.17V72.85A15.06,15.06,0,0,0,121,65a19.54,19.54,0,0,0-17.55-10.56A20,20,0,0,0,85.9,65a18.05,18.05,0,0,0-2.34,7.9v1.42a20.43,20.43,0,0,0,.27,2.89c0.07,0.52.15,1.06,0.21,1.66,0.16,1.09.26,2.13,0.29,2.87a4.58,4.58,0,0,0-1.39,2.82c-0.5,3.2,1,8.46,5.05,10a3.92,3.92,0,0,0,.32.4,13.72,13.72,0,0,1,1.54,6.64V105c0,7-11.82,11.13-22.89,14.47-5.41,1.55-9.39,3.67-11.52,6.15-2.3,2.81-2.61,3.78-2.61,4.41a1,1,0,0,0,.15.53L53.84,132a1.79,1.79,0,0,0,1.91,1.45h62.62A1,1,0,0,0,118.37,131.41Z" transform="translate(-52.84 -54.43)"/></svg>