<svg id="Layer_1" data-name="Layer 1" xmlns="http://www.w3.org/2000/svg" viewBox="0 0 111.51 65.63"><defs><style>.cls-1{fill:#22becc;}</style></defs><title>icon-containers</title><path class="cls-1" d="M160.14,228.49L95.57,206.28H95.46a0.92,0.92,0,0,0-.35,0h0L50,215.5a0.92,0.92,0,0,0-.73.9v48.81a0.92,0.92,0,0,0,.81.91l44.61,5.49a0.91,0.91,0,0,0,.61.24h64.56a0.92,0.92,0,0,0,.92-0.92V229.36A0.92,0.92,0,0,0,160.14,228.49ZM94.35,269.73L51.08,264.4V217.16l43.27-8.88v61.45Zm10.76,0.3H96.19V208.44l8.92,3.07V270Zm10.76,0H107V212.14l8.92,3.07V270Zm10.76,0h-8.92V215.84l8.92,3.07V270Zm10.76,0h-8.92V219.55l8.92,3.07V270Zm10.76-43.58V270h-8.92V223.25l8.95,3.08A0.86,0.86,0,0,0,148.16,226.45ZM158.92,270H150V226.95l8.92,3.07v40Z" transform="translate(-49.24 -206.24)"/></svg>