<svg id="Layer_1" data-name="Layer 1" xmlns="http://www.w3.org/2000/svg" viewBox="0 0 87.21 83.79"><defs><style>.cls-1{fill:#22becc;}</style></defs><title>icon-opensource</title><path class="cls-1" d="M267.47,275.29a1,1,0,0,1-.39-0.08,43.6,43.6,0,1,1,34.27,0,1,1,0,0,1-1.36-.66L291.5,243.5a1,1,0,0,1,0-1.41,10.1,10.1,0,1,0-14.55,0,1,1,0,0,1,0,1.41l-8.48,31.05A1,1,0,0,1,267.47,275.29Zm26-32.36,8.19,30a41.61,41.61,0,1,0-34.8,0l8.19-30A12.1,12.1,0,1,1,293.42,242.93Z" transform="translate(-240.6 -191.5)"/></svg>