<svg id="Layer_1" data-name="Layer 1" xmlns="http://www.w3.org/2000/svg" viewBox="0 0 93.68 93.66"><defs><style>.cls-1{fill:#22becc;}</style></defs><title>icon-continuous</title><path class="cls-1" d="M324.77,75.71l0-.08c-0.34-.58-0.71-1.15-1.08-1.72l-0.19-.3c-0.33-.5-0.69-1-1-1.49l0,0-0.13-.17-0.17-.24q-0.74-1-1.53-2l-0.23-.26q-0.82-1-1.69-1.92l-0.35-.37a46.21,46.21,0,0,0-14.54-10.33l-0.11-.06h0A46.88,46.88,0,0,0,292,53.29l0,0-0.21,0-0.29-.05h-0.07a46.71,46.71,0,0,0-23.68,2.57,0.94,0.94,0,0,0-.19.12l-14.1-.75a1,1,0,0,0-.84,1.56L256.5,62a46.33,46.33,0,0,0-18.18,30.39c-0.11.74-.2,1.47-0.28,2.21,0,0.22,0,.45-0.06.67,0,0.52-.09,1-0.12,1.56,0,0.25,0,.5,0,0.75q0,0.75,0,1.5c0,0.24,0,.49,0,0.73,0,0.54,0,1.08,0,1.62,0,0.19,0,.39,0,0.58,0,0.72.09,1.44,0.17,2.16,0,0.15,0,.3.06,0.45,0.06,0.55.13,1.1,0.21,1.65,0,0.32.1,0.64,0.16,1s0.13,0.74.2,1.1,0.15,0.76.24,1.14,0.13,0.56.2,0.84c0.1,0.43.21,0.87,0.33,1.3l0.14,0.49a46,46,0,0,0,2.58,6.93l0,0q0.39,0.84.82,1.66l0.11,0.21c0.27,0.52.55,1,.84,1.53l0,0.09,0,0,0,0.07v0l0.2,0.33c0.31,0.53.63,1,1,1.57l0.48,0.73q0.44,0.65.9,1.29l0.32,0.46,0.39,0.5,0.26,0.35,0,0a46.17,46.17,0,0,0,24.67,16.47h0.08l0.06,0a47.39,47.39,0,0,0,5.12,1.07h0a47.23,47.23,0,0,0,7.06.53A46.36,46.36,0,0,0,312.2,137h0l0.22-.17c0.56-.42,1.12-0.85,1.66-1.29l0.32-.27c0.51-.42,1-0.85,1.49-1.29l0.08-.07A46.71,46.71,0,0,0,324.77,75.71Zm-46.93,67.91h0l-0.11,0-1.49-.27h0c-1.11-.21-2.21-0.44-3.29-0.73h-0.07l-0.07,0a44.26,44.26,0,0,1-23.93-16.17l-0.65-.89q-0.45-.62-0.88-1.26l-0.45-.68q-0.48-.75-0.94-1.52l-0.31-.53q-0.4-.71-0.78-1.42l-0.13-.25q-0.4-.77-0.77-1.56l0-.08a44.47,44.47,0,0,1-2.46-6.6l-0.14-.49c-0.11-.41-0.21-0.82-0.31-1.24s-0.13-.55-0.19-0.82-0.16-.72-0.23-1.08-0.13-.71-0.19-1.06-0.11-.61-0.15-0.91c-0.08-.53-0.14-1.06-0.2-1.59,0-.14,0-0.28-0.05-0.42q-0.1-1-.16-2.07c0-.18,0-0.37,0-0.55,0-.52,0-1,0-1.56,0-.23,0-0.46,0-0.7q0-.72,0-1.44c0-.24,0-0.48,0-0.72,0-.5.07-1,0.11-1.49,0-.21,0-0.43.06-0.64,0.07-.71.16-1.41,0.27-2.12a44.41,44.41,0,0,1,18.08-29.61,0.93,0.93,0,0,0,.07-0.08h0a1,1,0,0,0,.21-1.37l-3.24-4.4,18.72,1-4.58,18.18-3.61-4.89a1,1,0,0,0-1.37-.21,0.81,0.81,0,0,1-.51.37A34.47,34.47,0,0,0,250.53,105s0,0,0,.07,0.06,0.32.09,0.48,0.08,0.43.12,0.65,0.13,0.65.21,1,0.11,0.47.17,0.7,0.16,0.63.25,0.94l0.19,0.65c0.1,0.34.21,0.68,0.32,1l0.18,0.52q0.2,0.57.42,1.13l0.15,0.37q0.26,0.64.54,1.26l0.1,0.22q0.32,0.69.68,1.37l0.06,0.11q0.38,0.73.8,1.44l0,0q0.43,0.73.9,1.43l0,0.06q0.45,0.67.93,1.32l0.07,0.1,0.05,0.06q0.54,0.73,1.13,1.44l0.18,0.22c0.39,0.47.8,0.93,1.22,1.37s0.69,0.71,1,1.06l0.17,0.17a34.13,34.13,0,0,0,6.16,4.73l0,0c0.75,0.45,1.51.88,2.29,1.27l0.05,0q1,0.51,2.09,1c0.4,0.17.81,0.32,1.22,0.47l0.75,0.27a34,34,0,0,0,11.28,1.94,34.76,34.76,0,0,0,5.41-.43h0l0.29,0c0.73-.12,1.45-0.27,2.16-0.44l0.45-.11c0.73-.18,1.45-0.38,2.16-0.6l0.23-.07c0.77-.25,1.52-0.53,2.25-0.83l0.49-.2c0.74-.31,1.48-0.65,2.19-1l0.24-.13q1-.53,2-1.12l0.39-.24q1-.63,2-1.32l0.26-.18,0.5-.39,0.38-.29q0.54-.43,1.06-0.87l0.12-.1a34.19,34.19,0,0,0,8.8-11.72l0.16-.36c0.15-.35.31-0.69,0.45-1s0.3-.76.44-1.14l0.11-.29a34.18,34.18,0,0,0,1.85-14.56V96.18q-0.06-.68-0.16-1.37c0-.16,0-0.32-0.07-0.47s-0.05-.42-0.09-0.63c0,0,0,0,0-.06a34.17,34.17,0,0,0-4.4-12l-0.11-.17Q313.49,80.76,313,80l-0.44-.63-0.34-.48-0.06-.05c-0.22-.3-0.43-0.6-0.66-0.9a0.93,0.93,0,0,0-.12-0.1,34.64,34.64,0,0,0-6.47-6.23h0a34.21,34.21,0,0,0-6-3.58l-0.13,0a34.37,34.37,0,0,0-10.28-2.88,0.92,0.92,0,0,0-.16,0A34.5,34.5,0,0,0,274,66.57l2.28-9a1,1,0,0,0-.9-1.22l-2.55-.14a44.63,44.63,0,0,1,44,12.32l0.33,0.35q0.84,0.9,1.64,1.86l0.2,0.23c0.56,0.69,1.11,1.39,1.63,2.11,0.4,0.55.79,1.09,1.15,1.65l0.09,0.14a44.82,44.82,0,0,1-7.27,57.61l-0.06.05c-0.48.44-1,.86-1.49,1.28l-0.24.21q-0.87.71-1.79,1.39l-1.35.93,0,0A44.41,44.41,0,0,1,277.84,143.62Zm12-76.28h0a32.59,32.59,0,0,1,13.91,5.89h0a32.69,32.69,0,0,1,7.15,7.25h0l0,0.06,0.41,0.58c0.31,0.46.61,0.93,0.9,1.4l0.1,0.15a32.65,32.65,0,0,1,4.23,11.81v0l0,0.12,0.06,0.44c0.06,0.43.11,0.87,0.15,1.3V96.5a32.74,32.74,0,0,1-1.74,13.73l-0.11.31c-0.13.35-.26,0.7-0.4,1s-0.29.68-.44,1l-0.13.3A32.74,32.74,0,0,1,305.71,124l-0.08.07c-0.33.29-.68,0.57-1,0.84l-0.33.26-0.87.65-0.52.37-0.77.52-0.63.4-0.72.44-0.69.38-0.72.39-0.71.35-0.74.35-0.72.31-0.76.32-0.72.27-0.79.28-0.74.24-0.8.24-0.78.21-0.76.19-0.87.19-0.66.13-1.06.17-0.4.06c-0.44.06-.89,0.11-1.34,0.15H287.4a32.74,32.74,0,0,1-15.2-2.29l-0.22-.09-1.06-.46-0.87-.42-0.39-.19a32.91,32.91,0,0,1-8.73-6.55l-0.21-.22c-0.22-.24-0.44-0.48-0.65-0.73l-0.54-.62-0.34-.42c-0.26-.32-0.51-0.65-0.76-1l-0.14-.2c-0.29-.4-0.58-0.81-0.85-1.22l-0.06-.09q-0.43-.65-0.83-1.32l0-.07q-0.39-.66-0.74-1.33l-0.07-.13q-0.33-.63-0.63-1.27l-0.11-.23c-0.18-.39-0.34-0.78-0.5-1.17l-0.15-.37c-0.14-.35-0.27-0.7-0.39-1l-0.18-.51c-0.11-.31-0.2-0.63-0.3-0.94l-0.18-.62c-0.08-.3-0.16-0.59-0.24-0.89s-0.11-.44-0.16-0.66-0.13-.61-0.2-0.92-0.08-.4-0.12-0.6a32.52,32.52,0,0,1,12.4-31.72l4.26,5.77a1,1,0,0,0,.79.4l0.19,0a1,1,0,0,0,.76-0.72l2.53-10.05A32.56,32.56,0,0,1,289.81,67.34Z" transform="translate(-237.66 -52.55)"/><path class="cls-1" d="M284.6,146.21a47.61,47.61,0,0,1-12.23-1.6l-0.07,0h-0.08A46.35,46.35,0,0,1,247.49,128s0,0,0,0l-0.14-.19-0.12-.16-0.16-.21-0.22-.29-0.18-.26-0.14-.2c-0.31-.43-0.61-0.87-0.9-1.29l-0.48-.73c-0.32-.49-0.63-1-1-1.57L244,123l-0.11-.18-0.12-.22c-0.26-.46-0.54-1-0.84-1.54l-0.11-.21c-0.28-.54-0.56-1.1-0.82-1.67l0,0a46.3,46.3,0,0,1-2.59-6.94l0-.14-0.1-.36c-0.12-.43-0.23-0.87-0.33-1.3-0.07-.28-0.13-0.56-0.2-0.85s-0.16-.76-0.24-1.14-0.14-.74-0.2-1.11l0-.16c0-.26-0.09-0.53-0.13-0.79-0.07-.5-0.14-1-0.21-1.66l0-.2c0-.09,0-0.17,0-0.26-0.07-.67-0.12-1.38-0.17-2.17,0-.11,0-0.21,0-0.32s0-.18,0-0.27c0-.6,0-1.13,0-1.62,0-.2,0-0.41,0-0.61V99.08c0-.53,0-1,0-1.51,0-.25,0-0.5,0-0.76,0-.49.07-1,0.12-1.56l0-.26c0-.14,0-0.28,0-0.42,0.08-.81.18-1.53,0.28-2.21A46.53,46.53,0,0,1,256.33,62l-3.83-5.2a1.1,1.1,0,0,1,.89-1.76h0.06l14.05,0.75h0a0.75,0.75,0,0,1,.18-0.11,46.87,46.87,0,0,1,23.74-2.58h0.07l0.16,0,0.14,0H292l0.06,0a47,47,0,0,1,11.61,3.47l0.09,0,0,0a46.2,46.2,0,0,1,14.58,10.36l0.35,0.37c0.6,0.65,1.17,1.29,1.7,1.92l0.11,0.13,0.11,0.13c0.57,0.69,1.07,1.33,1.54,2l0.09,0.13,0.08,0.11,0.06,0.08L322.49,72l0,0.06c0.32,0.44.69,1,1,1.49l0.1,0.16,0.09,0.15c0.42,0.65.77,1.2,1.08,1.72l0,0.08A46.83,46.83,0,0,1,316.07,134L316,134c-0.42.38-.88,0.78-1.5,1.29l-0.14.13-0.18.15c-0.5.41-1,.83-1.66,1.29l-0.1.08-0.12.09A46.39,46.39,0,0,1,284.6,146.21Zm-36.94-18.34,0,0a46.11,46.11,0,0,0,24.61,16.43h0.1l0,0a47,47,0,0,0,5.11,1.07,47.56,47.56,0,0,0,7.06.53,46.12,46.12,0,0,0,27.52-9.08l0.13-.1,0.11-.08c0.62-.46,1.16-0.88,1.65-1.29l0.17-.14,0.15-.13c0.61-.51,1.07-0.91,1.49-1.28l0.08-.07a46.58,46.58,0,0,0,8.76-58l0-.08c-0.31-.52-0.65-1.07-1.07-1.71l-0.1-.15-0.1-.15c-0.35-.52-0.72-1-1-1.49l0-.06-0.06-.07L322.16,72l-0.08-.12L322,71.72c-0.47-.63-1-1.27-1.53-2l-0.11-.13-0.11-.13c-0.52-.62-1.09-1.27-1.69-1.91l-0.35-.37a46,46,0,0,0-14.5-10.3l-0.06,0-0.05,0A47,47,0,0,0,292,53.41l-0.06,0h-0.2l-0.14,0-0.15,0H291.4a46.63,46.63,0,0,0-23.63,2.57l-0.12.07-0.08.06h0l-14.1-.75h0a0.85,0.85,0,0,0-.69,1.36l4,5.4-0.1.07a46.28,46.28,0,0,0-18.14,30.31c-0.1.68-.19,1.4-0.28,2.2,0,0.14,0,.27,0,0.41l0,0.26c0,0.55-.09,1.06-0.12,1.55,0,0.25,0,.5,0,0.75,0,0.48,0,1,0,1.5v0.12c0,0.2,0,.4,0,0.6,0,0.49,0,1,0,1.62,0,0.09,0,.18,0,0.27s0,0.21,0,.31c0,0.78.1,1.49,0.17,2.15,0,0.08,0,.17,0,0.25s0,0.13,0,.2c0.07,0.62.14,1.16,0.21,1.65,0,0.26.08,0.53,0.13,0.79l0,0.16c0.06,0.37.13,0.73,0.2,1.1s0.15,0.76.24,1.13,0.13,0.56.2,0.84c0.11,0.43.21,0.87,0.33,1.3l0.1,0.35,0,0.14a46,46,0,0,0,2.58,6.91v0q0.4,0.86.83,1.67l0.11,0.21c0.3,0.58.58,1.08,0.84,1.53l0.13,0.23,0.1,0.15,0.1,0.16c0.33,0.56.65,1.07,1,1.56l0.48,0.73c0.28,0.42.58,0.85,0.89,1.28l0.14,0.21L247,127l0.22,0.29,0.17,0.21,0.12,0.16,0.14,0.19h0Zm36.89,16.38a45.11,45.11,0,0,1-6.72-.5h-0.13l-1.49-.27c-1.32-.24-2.37-0.48-3.32-0.73h-0.06l-0.07,0a44.44,44.44,0,0,1-24-16.22l-0.65-.89c-0.32-.45-0.61-0.86-0.88-1.27l-0.45-.68c-0.32-.5-0.63-1-0.94-1.52l-0.1-.18-0.21-.36c-0.26-.46-0.51-0.92-0.78-1.43l-0.13-.25c-0.29-.55-0.54-1.06-0.77-1.56l0-.08a44.78,44.78,0,0,1-2.47-6.62l0-.17-0.09-.32c-0.11-.41-0.21-0.83-0.31-1.24s-0.13-.55-0.19-0.82-0.16-.72-0.23-1.09-0.13-.71-0.19-1.06l0-.2c0-.24-0.08-0.48-0.12-0.72-0.07-.49-0.14-1-0.2-1.6l0-.2c0-.08,0-0.15,0-0.23-0.07-.67-0.12-1.37-0.16-2.08,0-.11,0-0.22,0-0.33v-0.23c0-.56,0-1.07,0-1.56,0-.19,0-0.39,0-0.58V99.1c0-.49,0-1,0-1.44,0-.24,0-0.48,0-0.73,0-.45.06-0.94,0.11-1.5l0-.26c0-.13,0-0.26,0-0.39,0.08-.78.17-1.47,0.27-2.12A44.54,44.54,0,0,1,258.26,63l0.06-.07,0.06,0a0.86,0.86,0,0,0,.16-1.18l-3.4-4.61h0.26l18.87,1L269.6,76.67l-3.76-5.11a0.85,0.85,0,0,0-1.19-.18,0.84,0.84,0,0,0-.18.2l0,0h0a0.82,0.82,0,0,0-.26.12,34.22,34.22,0,0,0-13.48,33.19,0.24,0.24,0,0,1,0,.07c0,0.09,0,.17,0,0.25l0,0.22c0,0.22.08,0.43,0.13,0.65s0.13,0.64.21,1,0.11,0.47.17,0.7,0.16,0.63.25,0.94,0.13,0.43.19,0.65,0.21,0.67.32,1l0.18,0.52c0.14,0.41.28,0.77,0.42,1.12l0.15,0.37c0.18,0.45.36,0.86,0.54,1.25l0.1,0.22c0.22,0.46.44,0.92,0.67,1.37l0.05,0.1c0.25,0.48.52,1,.8,1.43l0,0c0.28,0.48.58,1,.89,1.42l0,0.06c0.29,0.44.6,0.88,0.92,1.32l0.12,0.17c0.38,0.5.75,1,1.12,1.43l0.08,0.1,0.09,0.12c0.42,0.5.82,0.94,1.21,1.37s0.68,0.7,1,1.05l0.17,0.17a34,34,0,0,0,6.14,4.71l0,0.13,0.06-.11c0.82,0.49,1.57.9,2.28,1.26l0,0q1,0.51,2.1,1l1,0.39,0.33,0.12,0.63,0.23a33.85,33.85,0,0,0,11.24,1.94,34.88,34.88,0,0,0,5.39-.43l0.15,0,0.16,0c0.65-.11,1.35-0.25,2.15-0.44l0.32-.08,0.12,0c0.75-.18,1.47-0.39,2.15-0.6l0.1,0,0.13,0c0.7-.23,1.44-0.5,2.25-0.83l0.49-.2c0.8-.34,1.51-0.67,2.18-1l0.13-.07,0.11-.06c0.65-.33,1.31-0.71,2-1.12l0.15-.09,0.25-.15c0.63-.4,1.29-0.84,2-1.32l0.13-.09,0.12-.08,0.3-.23,0.2-.16,0.38-.29c0.35-.27.7-0.56,1.06-0.87l0.12-.1a33.91,33.91,0,0,0,8.77-11.68l0.09-.21,0.06-.14c0.15-.35.31-0.69,0.45-1s0.29-.75.43-1.14l0-.12,0.06-.16a33.86,33.86,0,0,0,1.84-14.5V96.2c0-.48-0.1-0.93-0.16-1.36l0-.36,0-.11,0-.26c0-.12,0-0.25-0.05-0.37a0.16,0.16,0,0,1,0-.06,34,34,0,0,0-4.38-11.93l-0.06-.09,0-.08c-0.3-.49-0.62-1-0.95-1.47l-0.44-.62-0.14-.21L312.12,79l-0.05,0-0.22-.31c-0.14-.2-0.29-0.4-0.44-0.59l0,0-0.06,0a34.64,34.64,0,0,0-6.43-6.2h0l-0.07-.06a34.3,34.3,0,0,0-6-3.53h0l-0.07,0a34.24,34.24,0,0,0-10.26-2.88h-0.14a34.6,34.6,0,0,0-14.24,1.4l-0.21.07,2.33-9.26a0.85,0.85,0,0,0-.78-1.06l-3.33-.18,0.76-.2A44.76,44.76,0,0,1,317,68.4l0.1,0.11,0.23,0.24c0.56,0.6,1.11,1.22,1.64,1.86l0.09,0.1,0.11,0.13c0.54,0.66,1.08,1.35,1.64,2.12s0.83,1.16,1.16,1.66L322,74.7l0,0.06a44.94,44.94,0,0,1-7.29,57.77l-0.06.05c-0.42.38-.88,0.78-1.49,1.29l-0.11.09-0.14.12c-0.59.49-1.2,1-1.79,1.39l-1.39,1A44.65,44.65,0,0,1,284.55,144.25Zm-6.67-.75a44.37,44.37,0,0,0,31.74-7.25l0,0,1.34-.93c0.59-.44,1.19-0.9,1.78-1.38l0.13-.11,0.11-.09c0.61-.51,1.07-0.9,1.48-1.28l0,0a44.69,44.69,0,0,0,7.27-57.47l0-.07,0-.07c-0.33-.49-0.69-1-1.15-1.65s-1.09-1.46-1.63-2.11l-0.1-.12-0.09-.11c-0.53-.63-1.08-1.26-1.63-1.85l-0.23-.24-0.1-.11a44.33,44.33,0,0,0-13.85-9.85,44.85,44.85,0,0,0-11.5-3.43,44.35,44.35,0,0,0-17.76.79l1.74,0.09a1.1,1.1,0,0,1,1,1.37l-2.23,8.82A34.88,34.88,0,0,1,288.32,65h0a0.41,0.41,0,0,1,.13,0,34.44,34.44,0,0,1,10.32,2.89h0l0.11,0a34.34,34.34,0,0,1,6,3.57H305v0.06a34.77,34.77,0,0,1,6.45,6.22h0a0.45,0.45,0,0,1,.09.08c0.16,0.2.3,0.4,0.45,0.6l0.22,0.3,0.06,0.05,0.2,0.28,0.14,0.2L313.1,80c0.33,0.49.65,1,1,1.48l0,0.07,0.06,0.1a34.19,34.19,0,0,1,4.42,12,0.15,0.15,0,0,1,0,.06c0,0.13,0,.25.05,0.38l0,0.26,0,0.11,0.05,0.36c0.06,0.44.11,0.89,0.16,1.37v0.14a34.13,34.13,0,0,1-1.86,14.61l-0.06.17,0,0.12c-0.14.39-.28,0.77-0.44,1.14s-0.3.7-.45,1l-0.06.14-0.1.22a34.14,34.14,0,0,1-8.83,11.76l-0.12.1c-0.36.3-.72,0.6-1.06,0.87l-0.38.29-0.2.16-0.31.24-0.14.09-0.12.08c-0.67.48-1.33,0.93-2,1.33l-0.25.15-0.14.09c-0.68.41-1.35,0.79-2,1.13l-0.11.06-0.13.07c-0.67.34-1.39,0.67-2.2,1l-0.5.21c-0.81.33-1.55,0.6-2.26,0.83l-0.14,0-0.1,0c-0.68.22-1.41,0.42-2.16,0.6l-0.12,0-0.33.08c-0.8.19-1.51,0.33-2.17,0.44l-0.16,0-0.13,0a35,35,0,0,1-5.44.43,34.11,34.11,0,0,1-11.32-2l-0.64-.23-0.33-.12c-0.33-.12-0.67-0.25-1-0.39-0.72-.3-1.42-0.62-2.09-1l-0.05,0c-0.72-.36-1.48-0.78-2.3-1.27l0,0a34.25,34.25,0,0,1-6.18-4.74l-0.1-.1-0.08-.08c-0.36-.35-0.71-0.7-1-1.06s-0.8-.88-1.22-1.38l-0.1-.12-0.08-.1c-0.37-.45-0.75-0.93-1.13-1.44l-0.12-.17c-0.32-.44-0.63-0.89-0.93-1.33l0-.06c-0.31-.46-0.61-0.95-0.9-1.44l0.09-.09-0.11.07q-0.43-.73-0.81-1.46l-0.06-.11c-0.23-.45-0.46-0.91-0.68-1.38l-0.11-.23c-0.18-.4-0.36-0.81-0.54-1.26l-0.15-.38c-0.14-.35-0.28-0.72-0.42-1.13l-0.18-.53c-0.11-.33-0.22-0.67-0.32-1s-0.13-.43-0.19-0.65-0.17-.63-0.25-0.95-0.12-.47-0.17-0.71-0.14-.65-0.21-1-0.09-.44-0.12-0.65l0-.22c0-.09,0-0.17,0-0.26a0.23,0.23,0,0,1,0-.07A34.47,34.47,0,0,1,264,71.55a0.9,0.9,0,0,0,.5-0.37,1.1,1.1,0,0,1,1.54.23l3.45,4.68L274,58.32l-18.31-1,3.09,4.19a1.1,1.1,0,0,1-.23,1.54l0,0-0.08.08a44.28,44.28,0,0,0-18,29.53c-0.1.65-.18,1.34-0.27,2.11,0,0.13,0,.26,0,0.38l0,0.26c0,0.56-.09,1-0.11,1.49,0,0.24,0,.48,0,0.72,0,0.47,0,1,0,1.44v0.12c0,0.19,0,.39,0,0.58,0,0.48,0,1,0,1.55v0.23c0,0.11,0,.21,0,0.32,0,0.71.09,1.41,0.16,2.07,0,0.07,0,.15,0,0.22s0,0.13,0,.2c0.07,0.58.13,1.1,0.2,1.59,0,0.24.08,0.48,0.12,0.71l0,0.2c0.06,0.35.12,0.71,0.19,1.06s0.15,0.72.23,1.08,0.13,0.54.19,0.82,0.2,0.82.31,1.23l0.09,0.32,0,0.17a44.54,44.54,0,0,0,2.45,6.58l0,0.08c0.23,0.5.48,1,.77,1.55l0.13,0.25c0.27,0.5.52,1,.78,1.42l0.21,0.35L246,122c0.3,0.51.61,1,.93,1.51l0.45,0.68c0.27,0.4.56,0.82,0.88,1.26l0.65,0.88a44.17,44.17,0,0,0,23.86,16.12l0.07,0h0.07c0.95,0.25,2,.48,3.28.73h0l1.48,0.27h0.05ZM284.56,132a33,33,0,0,1-12.41-2.43l-0.22-.09-1.06-.47-0.88-.42-0.14-.07-0.25-.12a33,33,0,0,1-8.77-6.57l-0.08-.08-0.14-.14-0.55-.62-0.23-.27-0.4-.47-0.24-.3-0.1-.13c-0.23-.29-0.5-0.62-0.76-1l-0.14-.2c-0.33-.45-0.6-0.84-0.85-1.22l-0.06-.09c-0.29-.43-0.56-0.88-0.83-1.33l0-.07c-0.25-.42-0.5-0.87-0.74-1.33l-0.07-.12c-0.21-.41-0.42-0.84-0.63-1.28l0-.07-0.08-.17c-0.17-.37-0.33-0.75-0.51-1.17l-0.06-.14-0.09-.24c-0.14-.35-0.27-0.7-0.39-1.05l-0.18-.51c-0.11-.31-0.21-0.63-0.3-0.95l-0.18-.62c-0.08-.3-0.16-0.59-0.24-0.89s-0.11-.44-0.16-0.66-0.13-.61-0.2-0.92l-0.12-.61a32.49,32.49,0,0,1,12.44-31.84l0.1-.08,4.33,5.87a0.85,0.85,0,0,0,.85.33,0.86,0.86,0,0,0,.66-0.63l2.55-10.12,0.06,0a32.71,32.71,0,0,1,16.39-1.49h0a32.85,32.85,0,0,1,14,5.91h0A32.77,32.77,0,0,1,311,80.38l0.07,0.09,0.41,0.58c0.34,0.5.64,1,.91,1.41l0,0.07,0,0.08a32.59,32.59,0,0,1,4.25,11.85l0,0.14,0.06,0.44c0.06,0.48.11,0.91,0.15,1.3v0.13a33.06,33.06,0,0,1-1.75,13.78l-0.07.18,0,0.13c-0.13.35-.26,0.7-0.4,1s-0.29.69-.44,1l0,0.11-0.09.2a33.08,33.08,0,0,1-8.35,11.11l-0.08.07c-0.3.26-.63,0.53-1,0.84l-0.33.26-0.87.65-0.52.37-0.77.52-0.64.4-0.73.44-0.69.39L300,128l-0.65.35-0.64.32-0.07,0-0.74.35-0.72.31,0,0-0.73.3-0.73.27-0.79.28-0.67.21-0.07,0-0.8.24-0.78.21-0.77.19-0.87.19-0.66.13-1.07.17-0.4.06-1.34.15H287.4C286.46,131.92,285.51,132,284.56,132ZM264.91,73.62a32.24,32.24,0,0,0-12.25,31.52l0.12,0.6c0.06,0.31.13,0.61,0.19,0.91s0.1,0.44.16,0.66,0.15,0.59.23,0.88l0.18,0.61c0.1,0.32.19,0.63,0.3,0.94l0.18,0.5c0.13,0.35.25,0.7,0.39,1l0.09,0.23,0.06,0.14c0.17,0.42.34,0.8,0.5,1.16l0.08,0.16,0,0.07c0.2,0.44.41,0.86,0.62,1.27l0.07,0.13c0.24,0.46.49,0.91,0.74,1.32l0,0.07c0.26,0.44.54,0.89,0.82,1.32l0.06,0.09c0.25,0.37.52,0.77,0.85,1.21l0.14,0.2c0.26,0.36.53,0.69,0.76,1l0.1,0.13,0.24,0.29,0.4,0.47,0.23,0.27,0.55,0.61,0.13,0.14,0.08,0.08a32.73,32.73,0,0,0,8.7,6.52l0.24,0.12,0.14,0.07,0.87,0.42,1.05,0.46,0.22,0.09a32.7,32.7,0,0,0,15.15,2.28h0.09l1.33-.15,0.4-.06,1.06-.17,0.66-.13,0.87-.19,0.76-.19,0.78-.21,0.79-.24,0.07,0,0.66-.21,0.79-.28,0.72-.27,0.72-.3,0,0,0.72-.31,0.73-.35,0.07,0,0.64-.32,0.65-.34,0.07,0,0.69-.38,0.72-.43,0.63-.39,0.77-.51,0.52-.36,0.87-.65,0.33-.26c0.4-.32.72-0.58,1-0.84l0.08-.07a32.82,32.82,0,0,0,8.28-11l0.08-.19,0-.11q0.23-.51.44-1c0.14-.34.27-0.69,0.4-1l0-.13,0.06-.18a32.8,32.8,0,0,0,1.74-13.67V96.38c0-.39-0.08-0.82-0.15-1.29l-0.06-.43,0-.12a32.46,32.46,0,0,0-4.22-11.79l0-.07,0-.08c-0.26-.44-0.56-0.89-0.9-1.39l-0.4-.58-0.06-.07a32.49,32.49,0,0,0-7.11-7.21h0l0,0a32.59,32.59,0,0,0-13.84-5.85h0a32.46,32.46,0,0,0-16.22,1.45l-2.52,10a1.11,1.11,0,0,1-.86.81l-0.21,0a1.1,1.1,0,0,1-.89-0.45Z" transform="translate(-237.66 -52.55)"/><path class="cls-1" d="M278.82,100.77A5.68,5.68,0,1,0,289,97.27l12-12a1,1,0,0,0-1.38-1.38l-12,12A5.67,5.67,0,0,0,278.82,100.77Zm5.68,3.72a3.72,3.72,0,1,1,3.72-3.72A3.72,3.72,0,0,1,284.5,104.49Z" transform="translate(-237.66 -52.55)"/><path class="cls-1" d="M284.5,106.58a5.8,5.8,0,1,1,3-10.77l12-12a1.1,1.1,0,0,1,.78-0.32h0a1.1,1.1,0,0,1,.78,1.88L289.13,97.28a5.73,5.73,0,0,1,1.18,3.49A5.81,5.81,0,0,1,284.5,106.58Zm0-11.36a5.55,5.55,0,1,0,5.55,5.55,5.48,5.48,0,0,0-1.19-3.42l-0.07-.09,0.08-.08,12-12a0.85,0.85,0,0,0-.6-1.46h0a0.84,0.84,0,0,0-.6.25l-12.1,12.1-0.08-.05A5.53,5.53,0,0,0,284.5,95.22Zm0,9.4a3.85,3.85,0,1,1,3.84-3.84A3.85,3.85,0,0,1,284.5,104.62Zm0-7.44a3.6,3.6,0,1,0,3.59,3.6A3.6,3.6,0,0,0,284.5,97.18Z" transform="translate(-237.66 -52.55)"/></svg>