<svg id="Text" xmlns="http://www.w3.org/2000/svg" viewBox="0 0 577.8 96.01"><defs><style>.cls-1{fill:#fff;}</style></defs><title>Platform_SpringOne_banners_FINAL</title><path class="cls-1" d="M664.3,1252a3.17,3.17,0,0,1,1.88-5.75,3.16,3.16,0,0,1,2,.61,16.77,16.77,0,0,0,10.83,4c4.2,0,6.85-2,6.85-4.86v-0.11c0-2.76-1.55-4.25-8.73-5.91-8.23-2-12.87-4.42-12.87-11.55v-0.11c0-6.63,5.53-11.22,13.21-11.22a21.28,21.28,0,0,1,12.27,3.59,3.07,3.07,0,0,1,1.49,2.71,3.16,3.16,0,0,1-3.21,3.15,3.29,3.29,0,0,1-1.77-.5,16.09,16.09,0,0,0-8.89-2.93c-4,0-6.3,2-6.3,4.59v0.11c0,3,1.77,4.31,9.23,6.08,8.18,2,12.38,4.92,12.38,11.33v0.11c0,7.24-5.69,11.55-13.81,11.55A24.09,24.09,0,0,1,664.3,1252Z" transform="translate(-623.55 -1191)"/><path class="cls-1" d="M697.12,1230.22a3.3,3.3,0,0,1,3.31-3.37,3.35,3.35,0,0,1,3.37,3.37V1232c2.15-3,5.19-5.47,9.95-5.47,6.85,0,13.54,5.42,13.54,15.14v0.11c0,9.67-6.63,15.14-13.54,15.14a11.92,11.92,0,0,1-9.95-5.14v10.33a3.34,3.34,0,0,1-6.69,0v-31.94Zm23.37,11.6v-0.11c0-5.63-3.81-9.34-8.34-9.34s-8.51,3.76-8.51,9.34v0.11c0,5.58,4,9.34,8.51,9.34S720.5,1247.57,720.5,1241.82Z" transform="translate(-623.55 -1191)"/><path class="cls-1" d="M731.44,1230.22a3.3,3.3,0,0,1,3.31-3.37,3.35,3.35,0,0,1,3.37,3.37v3c1.55-3.65,4.42-6.41,7.35-6.41a3.1,3.1,0,0,1,3.32,3.31,3.14,3.14,0,0,1-2.65,3.21c-4.75.83-8,4.48-8,11.38v8.62a3.34,3.34,0,0,1-3.37,3.31,3.29,3.29,0,0,1-3.31-3.31v-23.1Z" transform="translate(-623.55 -1191)"/><path class="cls-1" d="M751.39,1219.33c0-2,1.66-3.26,3.81-3.26s3.81,1.27,3.81,3.26v0.33c0,2-1.66,3.32-3.81,3.32s-3.81-1.33-3.81-3.32v-0.33Zm0.5,10.88a3.3,3.3,0,0,1,3.32-3.37,3.35,3.35,0,0,1,3.37,3.37v23.1a3.34,3.34,0,0,1-6.69,0v-23.1Z" transform="translate(-623.55 -1191)"/><path class="cls-1" d="M764.54,1230.22a3.3,3.3,0,0,1,3.32-3.37,3.35,3.35,0,0,1,3.37,3.37v1.44c1.88-2.71,4.59-5.08,9.12-5.08,6.58,0,10.39,4.42,10.39,11.16v15.58a3.26,3.26,0,0,1-3.32,3.31,3.3,3.3,0,0,1-3.37-3.31v-13.54c0-4.53-2.27-7.13-6.24-7.13s-6.57,2.71-6.57,7.24v13.43a3.34,3.34,0,0,1-6.69,0v-23.1Z" transform="translate(-623.55 -1191)"/><path class="cls-1" d="M797.75,1262.71a2.74,2.74,0,0,1-1.88-2.65,2.82,2.82,0,0,1,2.82-2.76,2.61,2.61,0,0,1,1.21.28,17.85,17.85,0,0,0,9,2.32c6,0,9.23-3.09,9.23-9v-2.27c-2.43,3.15-5.47,5.36-10.28,5.36-6.85,0-13.26-5.08-13.26-13.65v-0.11c0-8.62,6.47-13.7,13.26-13.7a12.58,12.58,0,0,1,10.22,5v-1.38a3.34,3.34,0,1,1,6.69.05v20.17c0,4.92-1.27,8.56-3.7,11-2.65,2.65-6.74,3.92-12,3.92A25.21,25.21,0,0,1,797.75,1262.71Zm20.39-22.38v-0.11c0-4.75-3.92-8-8.56-8s-8.29,3.21-8.29,8v0.11a8,8,0,0,0,8.29,8C814.21,1248.34,818.14,1245.08,818.14,1240.33Z" transform="translate(-623.55 -1191)"/><path class="cls-1" d="M829.41,1237.12V1237a19.82,19.82,0,0,1,20.28-20c11.88,0,20.17,9,20.17,19.89V1237a19.82,19.82,0,0,1-20.28,20C837.7,1257,829.41,1248,829.41,1237.12Zm33.32,0V1237c0-7.51-5.47-13.76-13.15-13.76s-13,6.13-13,13.65V1237c0,7.51,5.47,13.7,13.15,13.7S862.73,1244.64,862.73,1237.12Z" transform="translate(-623.55 -1191)"/><path class="cls-1" d="M874.55,1230.22a3.3,3.3,0,0,1,3.31-3.37,3.35,3.35,0,0,1,3.37,3.37v1.44c1.88-2.71,4.59-5.08,9.12-5.08,6.57,0,10.39,4.42,10.39,11.16v15.58a3.26,3.26,0,0,1-3.31,3.31,3.3,3.3,0,0,1-3.37-3.31v-13.54c0-4.53-2.27-7.13-6.24-7.13s-6.58,2.71-6.58,7.24v13.43a3.34,3.34,0,0,1-6.69,0v-23.1Z" transform="translate(-623.55 -1191)"/><path class="cls-1" d="M919.42,1257c-8.45,0-15-6.13-15-15.14v-0.11c0-8.34,5.91-15.2,14.26-15.2,9.28,0,13.87,7.62,13.87,14.37a3.13,3.13,0,0,1-3.15,3.21H911.13c0.72,4.75,4.09,7.4,8.4,7.4a10.49,10.49,0,0,0,6.91-2.54,2.48,2.48,0,0,1,1.71-.61,2.63,2.63,0,0,1,2.65,2.71,2.91,2.91,0,0,1-.88,2A15,15,0,0,1,919.42,1257Zm6.63-17.3c-0.44-4.31-3-7.68-7.4-7.68-4.09,0-7,3.15-7.57,7.68h15Z" transform="translate(-623.55 -1191)"/><path class="cls-1" d="M951.25,1221.1a3.37,3.37,0,0,1,3.43-3.43H966.5c9.06,0,14.7,5.14,14.7,12.93v0.11c0,8.67-7,13.21-15.47,13.21H958v9.34a3.4,3.4,0,0,1-6.8,0V1221.1Zm14.7,16.69c5.14,0,8.34-2.87,8.34-6.91v-0.11c0-4.53-3.26-6.91-8.34-6.91H958v13.93h7.9Z" transform="translate(-623.55 -1191)"/><path class="cls-1" d="M985,1219.05a3.29,3.29,0,0,1,3.32-3.32,3.34,3.34,0,0,1,3.37,3.32v34.26a3.34,3.34,0,0,1-6.69,0v-34.26Z" transform="translate(-623.55 -1191)"/><path class="cls-1" d="M995.73,1248v-0.11c0-6.3,4.92-9.39,12-9.39a24.37,24.37,0,0,1,7.85,1.22v-0.72c0-4.14-2.54-6.35-7.24-6.35a17.32,17.32,0,0,0-6.46,1.16,3.75,3.75,0,0,1-1.05.17,2.78,2.78,0,0,1-2.82-2.76,2.92,2.92,0,0,1,1.82-2.65,25,25,0,0,1,9.39-1.71c4.37,0,7.63,1.16,9.67,3.26s3.15,5.19,3.15,9v14.37a3.19,3.19,0,0,1-3.26,3.21,3,3,0,0,1-3.26-2.82v-1.11a11.86,11.86,0,0,1-9.5,4.25C1000.59,1257,995.73,1253.81,995.73,1248Zm20-2.1v-2a18.52,18.52,0,0,0-6.63-1.16c-4.31,0-6.85,1.82-6.85,4.86v0.11c0,2.82,2.49,4.42,5.69,4.42C1012.36,1252.1,1015.73,1249.56,1015.73,1245.85Z" transform="translate(-623.55 -1191)"/><path class="cls-1" d="M1028.44,1248.29v-15.36h-1.11a2.87,2.87,0,1,1,0-5.75h1.11v-5a3.34,3.34,0,0,1,6.69,0v5h5.25a2.87,2.87,0,1,1,0,5.75h-5.25v14.31c0,2.6,1.33,3.65,3.59,3.65a15.9,15.9,0,0,0,1.66-.17,2.82,2.82,0,0,1,2.82,2.76,2.88,2.88,0,0,1-1.77,2.6,13.28,13.28,0,0,1-4.59.77C1031.92,1256.85,1028.44,1254.69,1028.44,1248.29Z" transform="translate(-623.55 -1191)"/><path class="cls-1" d="M1048.5,1232.92h-1.16a2.78,2.78,0,0,1-2.82-2.76,2.83,2.83,0,0,1,2.82-2.82h1.16v-2.16c0-3.2.83-5.64,2.38-7.18a8.84,8.84,0,0,1,6.58-2.32,19.32,19.32,0,0,1,3.37.28,2.78,2.78,0,0,1-.5,5.53,10.75,10.75,0,0,0-1.38-.11c-2.54,0-3.87,1.38-3.87,4.42v1.6h5.19a2.75,2.75,0,0,1,2.82,2.76,2.78,2.78,0,0,1-2.82,2.76h-5.08v20.39a3.34,3.34,0,0,1-6.69,0v-20.39Z" transform="translate(-623.55 -1191)"/><path class="cls-1" d="M1062.87,1241.93v-0.11a15.56,15.56,0,0,1,31.11-.11v0.11a15.26,15.26,0,0,1-15.64,15.2A15.09,15.09,0,0,1,1062.87,1241.93Zm24.42,0v-0.11c0-5.14-3.7-9.39-9-9.39s-8.79,4.2-8.79,9.28v0.11c0,5.08,3.7,9.34,8.9,9.34C1083.86,1251.16,1087.29,1247,1087.29,1241.93Z" transform="translate(-623.55 -1191)"/><path class="cls-1" d="M1098,1230.22a3.3,3.3,0,0,1,3.31-3.37,3.35,3.35,0,0,1,3.37,3.37v3c1.55-3.65,4.42-6.41,7.35-6.41a3.1,3.1,0,0,1,3.32,3.31,3.14,3.14,0,0,1-2.65,3.21c-4.75.83-8,4.48-8,11.38v8.62a3.34,3.34,0,0,1-3.37,3.31,3.29,3.29,0,0,1-3.31-3.31v-23.1Z" transform="translate(-623.55 -1191)"/><path class="cls-1" d="M1118.07,1230.22a3.3,3.3,0,0,1,3.32-3.37,3.35,3.35,0,0,1,3.37,3.37v1.38c1.88-2.6,4.42-5,8.9-5a9.26,9.26,0,0,1,8.73,5.14,11.74,11.74,0,0,1,9.84-5.14c6.35,0,10.22,4,10.22,11.16v15.58a3.26,3.26,0,0,1-3.31,3.31,3.3,3.3,0,0,1-3.37-3.31v-13.54c0-4.64-2.15-7.13-5.91-7.13s-6.24,2.54-6.24,7.24v13.43a3.34,3.34,0,0,1-6.69,0v-13.59c0-4.53-2.21-7.07-5.91-7.07s-6.24,2.76-6.24,7.24v13.43a3.34,3.34,0,0,1-6.69,0v-23.1Z" transform="translate(-623.55 -1191)"/><path class="cls-1" d="M1153.34,1287H671.56a48,48,0,1,1,0-96h481.78A48,48,0,1,1,1153.34,1287Zm-481.78-93.66a45.65,45.65,0,1,0,0,91.31h481.78a45.65,45.65,0,0,0,0-91.31H671.56Z" transform="translate(-623.55 -1191)"/></svg>