<svg id="logos" xmlns="http://www.w3.org/2000/svg" viewBox="0 0 289.12 61.14"><defs><style>.cls-1{fill:#008774;}.cls-2{fill:#00ae9e;}.cls-3{fill:#000005;}</style></defs><title>logo-pcf</title><path class="cls-1" d="M295.53,180.66a22,22,0,1,0-43.3,5.84h0a21.88,21.88,0,0,0,.68,2.08,0.91,0.91,0,0,0,.85.57h6a0.9,0.9,0,0,0,.8-1.34c-0.24-.43-0.45-0.87-0.64-1.32h0a14.78,14.78,0,1,1,27.13,0h0a14.74,14.74,0,0,1-.69,1.4,0.85,0.85,0,0,0,.75,1.26h6.13a0.85,0.85,0,0,0,.8-0.54,21.86,21.86,0,0,0,.7-2.12h0A22,22,0,0,0,295.53,180.66Z" transform="translate(-251.44 -133.89)"/><path class="cls-2" d="M298.64,151.34a28,28,0,0,0-27.06,35.1h0c0.19,0.72.39,1.43,0.64,2.12a0.89,0.89,0,0,0,.84.59H279a0.88,0.88,0,0,0,.8-1.25c-0.22-.48-0.41-1-0.59-1.46h0a20.72,20.72,0,1,1,38.89,0h0q-0.28.78-.62,1.52a0.83,0.83,0,0,0,.76,1.18h6a0.84,0.84,0,0,0,.8-0.56c0.25-.7.46-1.42,0.65-2.15h0A28,28,0,0,0,298.64,151.34Z" transform="translate(-251.44 -133.89)"/><path class="cls-1" d="M314.13,158.7a24.81,24.81,0,1,0-49.61,0c0,0.76,0,1.52.11,2.26h7.31a17.54,17.54,0,1,1,34.93-2.26c0,0.32,0,.64,0,1h0a17.43,17.43,0,0,1-3.5,9.6,0.94,0.94,0,0,0,.75,1.51h6.35a1,1,0,0,0,.84-0.5,24.63,24.63,0,0,0,2.84-10.61h0C314.11,159.33,314.13,159,314.13,158.7Z" transform="translate(-251.44 -133.89)"/><path class="cls-3" d="M340.58,160.65v-20h8a6,6,0,1,1,0,12.06h-5.55v7.95h-2.49Zm11.73-14a3.72,3.72,0,0,0-4-3.81h-5.25v7.62h5.25A3.72,3.72,0,0,0,352.31,146.67Z" transform="translate(-251.44 -133.89)"/><path class="cls-3" d="M357.13,142.59a1.51,1.51,0,1,1,3,0A1.51,1.51,0,0,1,357.13,142.59Zm0.39,18.06V146.16h2.25v14.49h-2.25Z" transform="translate(-251.44 -133.89)"/><path class="cls-3" d="M367.95,160.65l-6-14.49h2.43L369.18,158l4.8-11.88h2.46l-6,14.49h-2.46Z" transform="translate(-251.44 -133.89)"/><path class="cls-3" d="M377.16,153.39c0-4.2,2.76-7.59,7.17-7.59s7.17,3.39,7.17,7.59-2.76,7.62-7.17,7.62S377.16,157.59,377.16,153.39Zm12,0c0-2.94-1.71-5.58-4.8-5.58s-4.83,2.64-4.83,5.58,1.74,5.61,4.83,5.61S389.12,156.36,389.12,153.39Z" transform="translate(-251.44 -133.89)"/><path class="cls-3" d="M395,157.62v-9.48h-2.4v-2H395v-4h2.25v4h2.94v2h-2.94v9c0,1.08.48,1.86,1.47,1.86a2.17,2.17,0,0,0,1.53-.6l0.66,1.68a3.68,3.68,0,0,1-2.7.93C396.12,161,395,159.78,395,157.62Z" transform="translate(-251.44 -133.89)"/><path class="cls-3" d="M412.18,160.65V159a6.27,6.27,0,0,1-4.8,2,4.82,4.82,0,0,1-5.07-4.8c0-3.24,2.61-4.77,5.07-4.77a6.06,6.06,0,0,1,4.8,2v-2.61c0-1.95-1.56-3.06-3.66-3.06a5.75,5.75,0,0,0-4.44,2l-1-1.56a7.58,7.58,0,0,1,5.79-2.4c3.06,0,5.61,1.38,5.61,4.89v10h-2.25Zm0-3.06v-2.73a4.85,4.85,0,0,0-4-1.8c-2.1,0-3.57,1.32-3.57,3.18s1.47,3.15,3.57,3.15A4.85,4.85,0,0,0,412.18,157.59Z" transform="translate(-251.44 -133.89)"/><path class="cls-3" d="M418.45,160.65v-20h2.25v20h-2.25Z" transform="translate(-251.44 -133.89)"/><path class="cls-3" d="M339.26,179.16c0-6.15,4.65-10.35,10.65-10.35a9.16,9.16,0,0,1,8.37,4.89l-3.66,1.8a5.42,5.42,0,0,0-4.71-2.91,6.58,6.58,0,0,0,0,13.14,5.36,5.36,0,0,0,4.71-2.91l3.66,1.77a9.21,9.21,0,0,1-8.37,4.92C343.91,189.51,339.26,185.31,339.26,179.16Z" transform="translate(-251.44 -133.89)"/><path class="cls-3" d="M360.13,189.15v-20h3.81v20h-3.81Z" transform="translate(-251.44 -133.89)"/><path class="cls-3" d="M366.3,181.89a7.66,7.66,0,1,1,7.65,7.62A7.34,7.34,0,0,1,366.3,181.89Zm11.37,0c0-2.25-1.35-4.2-3.72-4.2s-3.69,1.95-3.69,4.2,1.32,4.23,3.69,4.23S377.67,184.17,377.67,181.89Z" transform="translate(-251.44 -133.89)"/><path class="cls-3" d="M393.75,189.15v-1.83a6.78,6.78,0,0,1-5.1,2.19c-3.18,0-4.68-1.74-4.68-4.56V174.66h3.81v8.79c0,2,1,2.67,2.67,2.67a4.27,4.27,0,0,0,3.3-1.65v-9.81h3.81v14.49h-3.81Z" transform="translate(-251.44 -133.89)"/><path class="cls-3" d="M410.89,189.15v-1.86a5.62,5.62,0,0,1-4.47,2.22c-3.66,0-6.42-2.76-6.42-7.59s2.73-7.62,6.42-7.62a5.58,5.58,0,0,1,4.47,2.22v-7.38h3.84v20h-3.84Zm0-4.68v-5.13a4.14,4.14,0,0,0-3.3-1.65c-2.16,0-3.66,1.71-3.66,4.23s1.5,4.2,3.66,4.2A4.14,4.14,0,0,0,410.89,184.47Z" transform="translate(-251.44 -133.89)"/><path class="cls-3" d="M426,189.15v-20h14.16v3.75h-9.9v4.23h9.69v3.75h-9.69v8.28H426Z" transform="translate(-251.44 -133.89)"/><path class="cls-3" d="M441.6,181.89a7.66,7.66,0,1,1,7.65,7.62A7.34,7.34,0,0,1,441.6,181.89Zm11.37,0c0-2.25-1.35-4.2-3.72-4.2s-3.69,1.95-3.69,4.2,1.32,4.23,3.69,4.23S453,184.17,453,181.89Z" transform="translate(-251.44 -133.89)"/><path class="cls-3" d="M469,189.15v-1.83a6.78,6.78,0,0,1-5.1,2.19c-3.18,0-4.68-1.74-4.68-4.56V174.66h3.81v8.79c0,2,1,2.67,2.67,2.67a4.26,4.26,0,0,0,3.3-1.65v-9.81h3.81v14.49H469Z" transform="translate(-251.44 -133.89)"/><path class="cls-3" d="M485.88,189.15v-8.76c0-2-1.05-2.7-2.67-2.7a4.13,4.13,0,0,0-3.3,1.71v9.75h-3.81V174.66h3.81v1.89A6.64,6.64,0,0,1,485,174.3c3.18,0,4.71,1.8,4.71,4.62v10.23h-3.81Z" transform="translate(-251.44 -133.89)"/><path class="cls-3" d="M503,189.15v-1.86a5.62,5.62,0,0,1-4.47,2.22c-3.66,0-6.42-2.76-6.42-7.59s2.73-7.62,6.42-7.62a5.58,5.58,0,0,1,4.47,2.22v-7.38h3.84v20H503Zm0-4.68v-5.13a4.14,4.14,0,0,0-3.3-1.65c-2.16,0-3.66,1.71-3.66,4.23s1.5,4.2,3.66,4.2A4.14,4.14,0,0,0,503,184.47Z" transform="translate(-251.44 -133.89)"/><path class="cls-3" d="M510.07,189.15V174.66h3.81v2a6.23,6.23,0,0,1,4.62-2.34V178a5.05,5.05,0,0,0-1-.09,4.85,4.85,0,0,0-3.57,1.65v9.57h-3.81Z" transform="translate(-251.44 -133.89)"/><path class="cls-3" d="M521.39,191.4a3.29,3.29,0,0,0,1.2.24,1.92,1.92,0,0,0,2-1l0.54-1.23-5.88-14.7h4.08l3.78,10.08,3.78-10.08H535l-6.81,16.86c-1.08,2.73-3,3.45-5.49,3.51a10.4,10.4,0,0,1-1.89-.21Z" transform="translate(-251.44 -133.89)"/><path class="cls-3" d="M538.2,179.31a2.36,2.36,0,1,1,2.36-2.36A2.36,2.36,0,0,1,538.2,179.31Zm0-4.36a2,2,0,1,0,2,2A2,2,0,0,0,538.2,174.95Zm0.65,3.36-0.7-1.07h-0.47v1.07H537.3v-2.7h1.1a0.84,0.84,0,0,1,.88.82,0.79,0.79,0,0,1-.69.8l0.72,1.08h-0.47Zm-0.44-2.37h-0.72v1h0.72A0.48,0.48,0,1,0,538.4,175.94Z" transform="translate(-251.44 -133.89)"/></svg>